# xmcd
#
# Track frame offsets: 
#        150
#        14553
#        29775
#        44775
#        56776
#        68771
#        81420
#        100423
#        111701
#        124671
#        139397
#        153192
#        170106
#        184301
#        197708
#        211284
#        222452
#        237771
#        254946
#        268581
#
# Disc length: 3835 seconds
#
# Revision: 0
# Processed by: cddbd v1.5.1PL0 Copyright (c) Steve Scherf et al.
# Submitted via: ExactAudioCopy v0.95b1
#
DISCID=4e0ef914
DTITLE=Tom Jones - When I Fall In Love
DYEAR=2005
DGENRE=Blues
TTITLE0=Autumn Leaves
TTITLE1=Spanish Harlem
TTITLE2=Begin the Beguine
TTITLE3=You Came A Long Way from St. Louis
TTITLE4=My Foolish Heart
TTITLE5=It's Magic
TTITLE6=Georgia on My Mind
TTITLE7=Hello Young Lovers
TTITLE8=Taste of Honey
TTITLE9=Neamess of You
TTITLE10=When I Fall in Love
TTITLE11=My Prayer
TTITLE12=That Old Black Magic
TTITLE13=Mother's Eyes
TTITLE14=Brother, Can You Spate A Dime
TTITLE15=Fly Me to the Moon
TTITLE16=(Sitting on) the Dock of the Bay
TTITLE17=Hey Jude
TTITLE18=Let it Be Me
TTITLE19=You've Lost that Lovin'Feelin'
EXTD=
EXTT0=
EXTT1=
EXTT2=
EXTT3=
EXTT4=
EXTT5=
EXTT6=
EXTT7=
EXTT8=
EXTT9=
EXTT10=
EXTT11=
EXTT12=
EXTT13=
EXTT14=
EXTT15=
EXTT16=
EXTT17=
EXTT18=
EXTT19=
PLAYORDER=
